<svg width="127" height="19" viewBox="0 0 127 19" fill="none" xmlns="http://www.w3.org/2000/svg">
<path d="M8.24 18.288C6.544 18.288 5.088 17.928 3.872 17.208C2.656 16.472 1.72 15.456 1.064 14.16C0.408 12.848 0.08 11.336 0.08 9.624C0.08 7.912 0.408 6.4 1.064 5.088C1.72 3.776 2.656 2.752 3.872 2.016C5.088 1.28 6.544 0.912 8.24 0.912C10.256 0.912 11.904 1.416 13.184 2.424C14.48 3.416 15.288 4.816 15.608 6.624H12.224C12.016 5.712 11.568 5 10.88 4.488C10.208 3.96 9.312 3.696 8.192 3.696C6.64 3.696 5.424 4.224 4.544 5.28C3.664 6.336 3.224 7.784 3.224 9.624C3.224 11.464 3.664 12.912 4.544 13.968C5.424 15.008 6.64 15.528 8.192 15.528C9.312 15.528 10.208 15.288 10.88 14.808C11.568 14.312 12.016 13.632 12.224 12.768H15.608C15.288 14.496 14.48 15.848 13.184 16.824C11.904 17.8 10.256 18.288 8.24 18.288ZM22.3593 18.288C21.3353 18.288 20.4953 18.128 19.8393 17.808C19.1833 17.472 18.6953 17.032 18.3753 16.488C18.0553 15.944 17.8953 15.344 17.8953 14.688C17.8953 13.584 18.3273 12.688 19.1913 12C20.0553 11.312 21.3513 10.968 23.0793 10.968H26.1033V10.68C26.1033 9.864 25.8713 9.264 25.4073 8.88C24.9433 8.496 24.3673 8.304 23.6793 8.304C23.0553 8.304 22.5113 8.456 22.0473 8.76C21.5833 9.048 21.2953 9.48 21.1833 10.056H18.1833C18.2633 9.192 18.5513 8.44 19.0473 7.8C19.5593 7.16 20.2153 6.672 21.0153 6.336C21.8153 5.984 22.7113 5.808 23.7033 5.808C25.3993 5.808 26.7353 6.232 27.7113 7.08C28.6873 7.928 29.1753 9.128 29.1753 10.68V18H26.5593L26.2713 16.08C25.9193 16.72 25.4233 17.248 24.7833 17.664C24.1593 18.08 23.3513 18.288 22.3593 18.288ZM23.0553 15.888C23.9353 15.888 24.6153 15.6 25.0953 15.024C25.5913 14.448 25.9033 13.736 26.0313 12.888H23.4153C22.5993 12.888 22.0153 13.04 21.6633 13.344C21.3113 13.632 21.1353 13.992 21.1353 14.424C21.1353 14.888 21.3113 15.248 21.6633 15.504C22.0153 15.76 22.4793 15.888 23.0553 15.888ZM37.2468 18C35.9988 18 34.9988 17.696 34.2468 17.088C33.4948 16.48 33.1188 15.4 33.1188 13.848V8.664H31.0788V6.096H33.1188L33.4788 2.904H36.1908V6.096H39.4068V8.664H36.1908V13.872C36.1908 14.448 36.3108 14.848 36.5508 15.072C36.8068 15.28 37.2388 15.384 37.8468 15.384H39.3348V18H37.2468ZM55.4431 18.288C53.7471 18.288 52.2911 17.928 51.0751 17.208C49.8591 16.472 48.9231 15.456 48.2671 14.16C47.6111 12.848 47.2831 11.336 47.2831 9.624C47.2831 7.912 47.6111 6.4 48.2671 5.088C48.9231 3.776 49.8591 2.752 51.0751 2.016C52.2911 1.28 53.7471 0.912 55.4431 0.912C57.4591 0.912 59.1071 1.416 60.3871 2.424C61.6831 3.416 62.4911 4.816 62.8111 6.624H59.4271C59.2191 5.712 58.7711 5 58.0831 4.488C57.4111 3.96 56.5151 3.696 55.3951 3.696C53.8431 3.696 52.6271 4.224 51.7471 5.28C50.8671 6.336 50.4271 7.784 50.4271 9.624C50.4271 11.464 50.8671 12.912 51.7471 13.968C52.6271 15.008 53.8431 15.528 55.3951 15.528C56.5151 15.528 57.4111 15.288 58.0831 14.808C58.7711 14.312 59.2191 13.632 59.4271 12.768H62.8111C62.4911 14.496 61.6831 15.848 60.3871 16.824C59.1071 17.8 57.4591 18.288 55.4431 18.288ZM65.4584 18V0.719999H68.5304V18H65.4584ZM73.3254 4.248C72.7654 4.248 72.3014 4.08 71.9334 3.744C71.5814 3.408 71.4054 2.984 71.4054 2.472C71.4054 1.96 71.5814 1.544 71.9334 1.224C72.3014 0.887999 72.7654 0.719999 73.3254 0.719999C73.8854 0.719999 74.3414 0.887999 74.6934 1.224C75.0614 1.544 75.2454 1.96 75.2454 2.472C75.2454 2.984 75.0614 3.408 74.6934 3.744C74.3414 4.08 73.8854 4.248 73.3254 4.248ZM71.7894 18V6.096H74.8614V18H71.7894ZM83.8998 18.288C82.6838 18.288 81.6118 18.024 80.6838 17.496C79.7558 16.968 79.0198 16.232 78.4758 15.288C77.9478 14.344 77.6838 13.264 77.6838 12.048C77.6838 10.832 77.9478 9.752 78.4758 8.808C79.0198 7.864 79.7558 7.128 80.6838 6.6C81.6118 6.072 82.6838 5.808 83.8998 5.808C85.4198 5.808 86.6998 6.208 87.7398 7.008C88.7798 7.792 89.4438 8.88 89.7318 10.272H86.4918C86.3318 9.696 86.0118 9.248 85.5318 8.928C85.0678 8.592 84.5158 8.424 83.8758 8.424C83.0278 8.424 82.3078 8.744 81.7158 9.384C81.1238 10.024 80.8278 10.912 80.8278 12.048C80.8278 13.184 81.1238 14.072 81.7158 14.712C82.3078 15.352 83.0278 15.672 83.8758 15.672C84.5158 15.672 85.0678 15.512 85.5318 15.192C86.0118 14.872 86.3318 14.416 86.4918 13.824H89.7318C89.4438 15.168 88.7798 16.248 87.7398 17.064C86.6998 17.88 85.4198 18.288 83.8998 18.288ZM92.4584 18V0.719999H95.5304V10.92L99.7544 6.096H103.402L98.5304 11.52L104.194 18H100.354L95.5304 12.024V18H92.4584ZM110.899 18.288C109.699 18.288 108.635 18.032 107.707 17.52C106.779 17.008 106.051 16.288 105.523 15.36C104.995 14.432 104.731 13.36 104.731 12.144C104.731 10.912 104.987 9.816 105.499 8.856C106.027 7.896 106.747 7.152 107.659 6.624C108.587 6.08 109.675 5.808 110.923 5.808C112.091 5.808 113.123 6.064 114.019 6.576C114.915 7.088 115.611 7.792 116.107 8.688C116.619 9.568 116.875 10.552 116.875 11.64C116.875 11.816 116.867 12 116.851 12.192C116.851 12.384 116.843 12.584 116.827 12.792H107.779C107.843 13.72 108.163 14.448 108.739 14.976C109.331 15.504 110.043 15.768 110.875 15.768C111.499 15.768 112.019 15.632 112.435 15.36C112.867 15.072 113.187 14.704 113.395 14.256H116.515C116.291 15.008 115.915 15.696 115.387 16.32C114.875 16.928 114.235 17.408 113.467 17.76C112.715 18.112 111.859 18.288 110.899 18.288ZM110.923 8.304C110.171 8.304 109.507 8.52 108.931 8.952C108.355 9.368 107.987 10.008 107.827 10.872H113.755C113.707 10.088 113.419 9.464 112.891 9C112.363 8.536 111.707 8.304 110.923 8.304ZM119.458 18V6.096H122.194L122.482 8.328C122.914 7.56 123.498 6.952 124.234 6.504C124.986 6.04 125.866 5.808 126.874 5.808V9.048H126.01C125.338 9.048 124.738 9.152 124.21 9.36C123.682 9.568 123.266 9.928 122.962 10.44C122.674 10.952 122.53 11.664 122.53 12.576V18H119.458Z" fill="#2F375F"/>
</svg>
